<mxfile host="app.diagrams.net" modified="2022-05-12T00:17:07.108Z" agent="5.0 (Windows NT 10.0; Win64; x64) AppleWebKit/537.36 (KHTML, like Gecko) Chrome/101.0.4951.54 Safari/537.36 Edg/101.0.1210.39" etag="NhF2Ycj4vzLgJHQ2qz-E" version="18.0.2" type="github" pages="2">
  <diagram id="UmnkcHYLlbkWY7YtJigW" name="기능분해도">
    <mxGraphModel dx="2105" dy="605" grid="1" gridSize="10" guides="1" tooltips="1" connect="1" arrows="1" fold="1" page="1" pageScale="1" pageWidth="827" pageHeight="1169" math="0" shadow="0">
      <root>
        <mxCell id="0" />
        <mxCell id="1" parent="0" />
        <mxCell id="TtTyZ-AKI0meQdyoexvj-48" value="" style="verticalLabelPosition=bottom;verticalAlign=top;html=1;shape=mxgraph.basic.polygon;polyCoords=[[0.25,0],[1,0],[1,0.46],[0.8,0.81],[0.38,0.81],[0.14,0.46],[0.14,0.31],[0.22,0.22]];polyline=0;dashed=1;dashPattern=1 1;fontSize=23;strokeColor=#FF6666;strokeWidth=6;" parent="1" vertex="1">
          <mxGeometry x="-50" y="460" width="960" height="590" as="geometry" />
        </mxCell>
        <mxCell id="TtTyZ-AKI0meQdyoexvj-1" value="Function" style="swimlane;startSize=40;fillColor=#fff2cc;strokeColor=#000000;" parent="1" vertex="1">
          <mxGeometry x="320" y="320" width="160" height="80" as="geometry" />
        </mxCell>
        <mxCell id="TtTyZ-AKI0meQdyoexvj-2" value="회원제 코인노래방" style="text;html=1;align=center;verticalAlign=middle;resizable=0;points=[];autosize=1;strokeColor=none;fillColor=none;" parent="TtTyZ-AKI0meQdyoexvj-1" vertex="1">
          <mxGeometry x="25" y="50" width="110" height="20" as="geometry" />
        </mxCell>
        <mxCell id="TtTyZ-AKI0meQdyoexvj-3" value="" style="endArrow=none;html=1;rounded=0;" parent="1" edge="1">
          <mxGeometry width="50" height="50" relative="1" as="geometry">
            <mxPoint x="399.57" y="440" as="sourcePoint" />
            <mxPoint x="399.57" y="400" as="targetPoint" />
          </mxGeometry>
        </mxCell>
        <mxCell id="TtTyZ-AKI0meQdyoexvj-4" value="" style="endArrow=none;html=1;rounded=0;" parent="1" edge="1">
          <mxGeometry width="50" height="50" relative="1" as="geometry">
            <mxPoint x="80" y="440" as="sourcePoint" />
            <mxPoint x="400" y="440" as="targetPoint" />
          </mxGeometry>
        </mxCell>
        <mxCell id="TtTyZ-AKI0meQdyoexvj-5" value="" style="endArrow=none;html=1;rounded=0;" parent="1" edge="1">
          <mxGeometry width="50" height="50" relative="1" as="geometry">
            <mxPoint x="79.63" y="480" as="sourcePoint" />
            <mxPoint x="79.63" y="440" as="targetPoint" />
          </mxGeometry>
        </mxCell>
        <mxCell id="TtTyZ-AKI0meQdyoexvj-6" value="F1" style="swimlane;startSize=40;fillColor=#dae8fc;strokeColor=#000000;" parent="1" vertex="1">
          <mxGeometry y="480" width="160" height="80" as="geometry" />
        </mxCell>
        <mxCell id="TtTyZ-AKI0meQdyoexvj-7" value="이용현황 관리 업무" style="text;html=1;align=center;verticalAlign=middle;resizable=0;points=[];autosize=1;strokeColor=none;fillColor=none;" parent="1" vertex="1">
          <mxGeometry x="20" y="530" width="120" height="20" as="geometry" />
        </mxCell>
        <mxCell id="TtTyZ-AKI0meQdyoexvj-8" value="F2" style="swimlane;startSize=40;fillColor=#dae8fc;strokeColor=#000000;" parent="1" vertex="1">
          <mxGeometry x="200" y="480" width="160" height="80" as="geometry" />
        </mxCell>
        <mxCell id="TtTyZ-AKI0meQdyoexvj-9" value="수록곡 관리 업무" style="text;html=1;align=center;verticalAlign=middle;resizable=0;points=[];autosize=1;strokeColor=none;fillColor=none;" parent="TtTyZ-AKI0meQdyoexvj-8" vertex="1">
          <mxGeometry x="25" y="50" width="110" height="20" as="geometry" />
        </mxCell>
        <mxCell id="TtTyZ-AKI0meQdyoexvj-10" value="" style="endArrow=none;html=1;rounded=0;" parent="1" edge="1">
          <mxGeometry width="50" height="50" relative="1" as="geometry">
            <mxPoint x="400" y="440" as="sourcePoint" />
            <mxPoint x="720" y="440" as="targetPoint" />
          </mxGeometry>
        </mxCell>
        <mxCell id="TtTyZ-AKI0meQdyoexvj-11" value="" style="endArrow=none;html=1;rounded=0;" parent="1" edge="1">
          <mxGeometry width="50" height="50" relative="1" as="geometry">
            <mxPoint x="279.56999999999994" y="480" as="sourcePoint" />
            <mxPoint x="279.56999999999994" y="440" as="targetPoint" />
          </mxGeometry>
        </mxCell>
        <mxCell id="TtTyZ-AKI0meQdyoexvj-12" value="" style="endArrow=none;html=1;rounded=0;" parent="1" edge="1">
          <mxGeometry width="50" height="50" relative="1" as="geometry">
            <mxPoint x="519.9999999999998" y="480" as="sourcePoint" />
            <mxPoint x="519.9999999999998" y="440" as="targetPoint" />
          </mxGeometry>
        </mxCell>
        <mxCell id="TtTyZ-AKI0meQdyoexvj-13" value="F3" style="swimlane;startSize=40;fillColor=#dae8fc;strokeColor=#000000;" parent="1" vertex="1">
          <mxGeometry x="440" y="480" width="160" height="80" as="geometry" />
        </mxCell>
        <mxCell id="TtTyZ-AKI0meQdyoexvj-14" value="회원 관리 업무" style="text;html=1;align=center;verticalAlign=middle;resizable=0;points=[];autosize=1;strokeColor=none;fillColor=none;" parent="TtTyZ-AKI0meQdyoexvj-13" vertex="1">
          <mxGeometry x="35" y="50" width="90" height="20" as="geometry" />
        </mxCell>
        <mxCell id="TtTyZ-AKI0meQdyoexvj-15" value="" style="endArrow=none;html=1;rounded=0;" parent="1" edge="1">
          <mxGeometry width="50" height="50" relative="1" as="geometry">
            <mxPoint x="279.49999999999983" y="600" as="sourcePoint" />
            <mxPoint x="279.49999999999983" y="560" as="targetPoint" />
          </mxGeometry>
        </mxCell>
        <mxCell id="TtTyZ-AKI0meQdyoexvj-16" value="" style="endArrow=none;html=1;rounded=0;" parent="1" edge="1">
          <mxGeometry width="50" height="50" relative="1" as="geometry">
            <mxPoint x="180" y="600" as="sourcePoint" />
            <mxPoint x="380" y="600" as="targetPoint" />
          </mxGeometry>
        </mxCell>
        <mxCell id="TtTyZ-AKI0meQdyoexvj-17" value="" style="endArrow=none;html=1;rounded=0;" parent="1" edge="1">
          <mxGeometry width="50" height="50" relative="1" as="geometry">
            <mxPoint x="179.92999999999978" y="640" as="sourcePoint" />
            <mxPoint x="179.92999999999978" y="600" as="targetPoint" />
          </mxGeometry>
        </mxCell>
        <mxCell id="TtTyZ-AKI0meQdyoexvj-18" value="F2.1" style="swimlane;startSize=40;fillColor=#dae8fc;strokeColor=#000000;" parent="1" vertex="1">
          <mxGeometry x="99" y="640" width="160" height="80" as="geometry" />
        </mxCell>
        <mxCell id="TtTyZ-AKI0meQdyoexvj-19" value="수록곡관리" style="text;html=1;align=center;verticalAlign=middle;resizable=0;points=[];autosize=1;strokeColor=none;fillColor=none;" parent="TtTyZ-AKI0meQdyoexvj-18" vertex="1">
          <mxGeometry x="40" y="50" width="80" height="20" as="geometry" />
        </mxCell>
        <mxCell id="TtTyZ-AKI0meQdyoexvj-20" value="F2.2" style="swimlane;startSize=40;fillColor=#dae8fc;strokeColor=#000000;" parent="1" vertex="1">
          <mxGeometry x="301" y="640" width="160" height="80" as="geometry" />
        </mxCell>
        <mxCell id="TtTyZ-AKI0meQdyoexvj-21" value="차트관리" style="text;html=1;align=center;verticalAlign=middle;resizable=0;points=[];autosize=1;strokeColor=none;fillColor=none;" parent="TtTyZ-AKI0meQdyoexvj-20" vertex="1">
          <mxGeometry x="50" y="50" width="60" height="20" as="geometry" />
        </mxCell>
        <mxCell id="TtTyZ-AKI0meQdyoexvj-22" value="" style="endArrow=none;html=1;rounded=0;" parent="1" edge="1">
          <mxGeometry width="50" height="50" relative="1" as="geometry">
            <mxPoint x="379.7099999999998" y="640" as="sourcePoint" />
            <mxPoint x="379.7099999999998" y="600" as="targetPoint" />
          </mxGeometry>
        </mxCell>
        <mxCell id="TtTyZ-AKI0meQdyoexvj-23" value="" style="endArrow=none;html=1;rounded=0;" parent="1" edge="1">
          <mxGeometry width="50" height="50" relative="1" as="geometry">
            <mxPoint x="519.5699999999999" y="800" as="sourcePoint" />
            <mxPoint x="519.5699999999999" y="560" as="targetPoint" />
          </mxGeometry>
        </mxCell>
        <mxCell id="TtTyZ-AKI0meQdyoexvj-25" value="" style="endArrow=none;html=1;rounded=0;" parent="1" edge="1">
          <mxGeometry width="50" height="50" relative="1" as="geometry">
            <mxPoint x="619.9999999999998" y="840" as="sourcePoint" />
            <mxPoint x="619.9999999999998" y="800" as="targetPoint" />
          </mxGeometry>
        </mxCell>
        <mxCell id="TtTyZ-AKI0meQdyoexvj-26" value="" style="endArrow=none;html=1;rounded=0;" parent="1" edge="1">
          <mxGeometry width="50" height="50" relative="1" as="geometry">
            <mxPoint x="620.9999999999998" y="640" as="sourcePoint" />
            <mxPoint x="620.9999999999998" y="600" as="targetPoint" />
          </mxGeometry>
        </mxCell>
        <mxCell id="TtTyZ-AKI0meQdyoexvj-28" value="" style="endArrow=none;html=1;rounded=0;" parent="1" edge="1">
          <mxGeometry width="50" height="50" relative="1" as="geometry">
            <mxPoint x="419.9999999999998" y="840" as="sourcePoint" />
            <mxPoint x="419.9999999999998" y="800" as="targetPoint" />
          </mxGeometry>
        </mxCell>
        <mxCell id="TtTyZ-AKI0meQdyoexvj-29" value="F3.1" style="swimlane;startSize=40;fillColor=#dae8fc;strokeColor=#000000;" parent="1" vertex="1">
          <mxGeometry x="340" y="840" width="160" height="80" as="geometry" />
        </mxCell>
        <mxCell id="TtTyZ-AKI0meQdyoexvj-30" value="회원정보관리" style="text;html=1;align=center;verticalAlign=middle;resizable=0;points=[];autosize=1;strokeColor=none;fillColor=none;" parent="TtTyZ-AKI0meQdyoexvj-29" vertex="1">
          <mxGeometry x="35" y="50" width="90" height="20" as="geometry" />
        </mxCell>
        <mxCell id="TtTyZ-AKI0meQdyoexvj-31" value="F4.1" style="swimlane;startSize=40;fillColor=#dae8fc;strokeColor=#000000;" parent="1" vertex="1">
          <mxGeometry x="541" y="640" width="160" height="80" as="geometry" />
        </mxCell>
        <mxCell id="TtTyZ-AKI0meQdyoexvj-32" value="이용권관리" style="text;html=1;align=center;verticalAlign=middle;resizable=0;points=[];autosize=1;strokeColor=none;fillColor=none;" parent="TtTyZ-AKI0meQdyoexvj-31" vertex="1">
          <mxGeometry x="40" y="50" width="80" height="20" as="geometry" />
        </mxCell>
        <mxCell id="TtTyZ-AKI0meQdyoexvj-33" value="F3.2" style="swimlane;startSize=40;fillColor=#dae8fc;strokeColor=#000000;" parent="1" vertex="1">
          <mxGeometry x="540" y="840" width="160" height="80" as="geometry" />
        </mxCell>
        <mxCell id="TtTyZ-AKI0meQdyoexvj-34" value="이용내역관리" style="text;html=1;align=center;verticalAlign=middle;resizable=0;points=[];autosize=1;strokeColor=none;fillColor=none;" parent="TtTyZ-AKI0meQdyoexvj-33" vertex="1">
          <mxGeometry x="35" y="50" width="90" height="20" as="geometry" />
        </mxCell>
        <mxCell id="TtTyZ-AKI0meQdyoexvj-37" value="&lt;b&gt;&lt;font style=&quot;font-size: 23px&quot;&gt;개발 업무범위&lt;/font&gt;&lt;/b&gt;" style="text;html=1;strokeColor=none;fillColor=none;align=center;verticalAlign=middle;whiteSpace=wrap;rounded=0;dashed=1;dashPattern=1 1;" parent="1" vertex="1">
          <mxGeometry x="446" y="960" width="170" height="30" as="geometry" />
        </mxCell>
        <mxCell id="TtTyZ-AKI0meQdyoexvj-38" value="" style="endArrow=none;html=1;rounded=0;" parent="1" edge="1">
          <mxGeometry width="50" height="50" relative="1" as="geometry">
            <mxPoint x="719.9999999999998" y="480" as="sourcePoint" />
            <mxPoint x="719.9999999999998" y="440" as="targetPoint" />
          </mxGeometry>
        </mxCell>
        <mxCell id="TtTyZ-AKI0meQdyoexvj-39" value="F4" style="swimlane;startSize=40;fillColor=#dae8fc;strokeColor=#000000;" parent="1" vertex="1">
          <mxGeometry x="640" y="480" width="160" height="80" as="geometry" />
        </mxCell>
        <mxCell id="TtTyZ-AKI0meQdyoexvj-40" value="상품 관리 업무" style="text;html=1;align=center;verticalAlign=middle;resizable=0;points=[];autosize=1;strokeColor=none;fillColor=none;" parent="TtTyZ-AKI0meQdyoexvj-39" vertex="1">
          <mxGeometry x="35" y="50" width="90" height="20" as="geometry" />
        </mxCell>
        <mxCell id="TtTyZ-AKI0meQdyoexvj-41" value="" style="endArrow=none;html=1;rounded=0;" parent="1" edge="1">
          <mxGeometry width="50" height="50" relative="1" as="geometry">
            <mxPoint x="420" y="800" as="sourcePoint" />
            <mxPoint x="620" y="800" as="targetPoint" />
          </mxGeometry>
        </mxCell>
        <mxCell id="TtTyZ-AKI0meQdyoexvj-42" value="" style="endArrow=none;html=1;rounded=0;" parent="1" edge="1">
          <mxGeometry width="50" height="50" relative="1" as="geometry">
            <mxPoint x="719.6299999999998" y="600" as="sourcePoint" />
            <mxPoint x="719.6299999999998" y="560" as="targetPoint" />
          </mxGeometry>
        </mxCell>
        <mxCell id="TtTyZ-AKI0meQdyoexvj-43" value="" style="endArrow=none;html=1;rounded=0;" parent="1" edge="1">
          <mxGeometry width="50" height="50" relative="1" as="geometry">
            <mxPoint x="620" y="600" as="sourcePoint" />
            <mxPoint x="820" y="600" as="targetPoint" />
          </mxGeometry>
        </mxCell>
        <mxCell id="TtTyZ-AKI0meQdyoexvj-44" value="" style="endArrow=none;html=1;rounded=0;" parent="1" edge="1">
          <mxGeometry width="50" height="50" relative="1" as="geometry">
            <mxPoint x="819.9999999999998" y="640.0000000000002" as="sourcePoint" />
            <mxPoint x="819.9999999999998" y="600" as="targetPoint" />
          </mxGeometry>
        </mxCell>
        <mxCell id="TtTyZ-AKI0meQdyoexvj-45" value="F4.2" style="swimlane;startSize=40;fillColor=#dae8fc;strokeColor=#000000;" parent="1" vertex="1">
          <mxGeometry x="740" y="640" width="160" height="80" as="geometry" />
        </mxCell>
        <mxCell id="TtTyZ-AKI0meQdyoexvj-46" value="상품관리" style="text;html=1;align=center;verticalAlign=middle;resizable=0;points=[];autosize=1;strokeColor=none;fillColor=none;" parent="TtTyZ-AKI0meQdyoexvj-45" vertex="1">
          <mxGeometry x="50" y="50" width="60" height="20" as="geometry" />
        </mxCell>
      </root>
    </mxGraphModel>
  </diagram>
  <diagram id="Dk_l1SkG-XBKbnCgi9oT" name="ER-Diagram">
    <mxGraphModel dx="1790" dy="1083" grid="1" gridSize="10" guides="1" tooltips="1" connect="1" arrows="1" fold="1" page="1" pageScale="1" pageWidth="827" pageHeight="1169" math="0" shadow="0">
      <root>
        <mxCell id="0" />
        <mxCell id="1" parent="0" />
        <mxCell id="x1jz6nEeO-O-7WN6J9LO-3" value="Song" style="swimlane;fontStyle=2;childLayout=stackLayout;horizontal=1;startSize=26;horizontalStack=0;resizeParent=1;resizeParentMax=0;resizeLast=0;collapsible=1;marginBottom=0;align=center;fontSize=14;fillColor=#dae8fc;strokeColor=#000000;" vertex="1" parent="1">
          <mxGeometry x="-40" y="396" width="160" height="176" as="geometry" />
        </mxCell>
        <mxCell id="x1jz6nEeO-O-7WN6J9LO-4" value="song_ID" style="text;strokeColor=none;fillColor=none;spacingLeft=4;spacingRight=4;overflow=hidden;rotatable=0;points=[[0,0.5],[1,0.5]];portConstraint=eastwest;fontSize=12;fontStyle=4" vertex="1" parent="x1jz6nEeO-O-7WN6J9LO-3">
          <mxGeometry y="26" width="160" height="30" as="geometry" />
        </mxCell>
        <mxCell id="x1jz6nEeO-O-7WN6J9LO-5" value="title" style="text;strokeColor=none;fillColor=none;spacingLeft=4;spacingRight=4;overflow=hidden;rotatable=0;points=[[0,0.5],[1,0.5]];portConstraint=eastwest;fontSize=12;" vertex="1" parent="x1jz6nEeO-O-7WN6J9LO-3">
          <mxGeometry y="56" width="160" height="30" as="geometry" />
        </mxCell>
        <mxCell id="x1jz6nEeO-O-7WN6J9LO-6" value="genre" style="text;strokeColor=none;fillColor=none;spacingLeft=4;spacingRight=4;overflow=hidden;rotatable=0;points=[[0,0.5],[1,0.5]];portConstraint=eastwest;fontSize=12;" vertex="1" parent="x1jz6nEeO-O-7WN6J9LO-3">
          <mxGeometry y="86" width="160" height="30" as="geometry" />
        </mxCell>
        <mxCell id="x1jz6nEeO-O-7WN6J9LO-7" value="singer" style="text;strokeColor=none;fillColor=none;spacingLeft=4;spacingRight=4;overflow=hidden;rotatable=0;points=[[0,0.5],[1,0.5]];portConstraint=eastwest;fontSize=12;" vertex="1" parent="x1jz6nEeO-O-7WN6J9LO-3">
          <mxGeometry y="116" width="160" height="30" as="geometry" />
        </mxCell>
        <mxCell id="x1jz6nEeO-O-7WN6J9LO-19" value="count()" style="text;strokeColor=none;fillColor=none;spacingLeft=4;spacingRight=4;overflow=hidden;rotatable=0;points=[[0,0.5],[1,0.5]];portConstraint=eastwest;fontSize=12;" vertex="1" parent="x1jz6nEeO-O-7WN6J9LO-3">
          <mxGeometry y="146" width="160" height="30" as="geometry" />
        </mxCell>
        <mxCell id="x1jz6nEeO-O-7WN6J9LO-9" value="Song_Request" style="swimlane;fontStyle=2;childLayout=stackLayout;horizontal=1;startSize=26;horizontalStack=0;resizeParent=1;resizeParentMax=0;resizeLast=0;collapsible=1;marginBottom=0;align=center;fontSize=14;fillColor=#dae8fc;strokeColor=#000000;" vertex="1" parent="1">
          <mxGeometry x="320" y="123" width="160" height="146" as="geometry" />
        </mxCell>
        <mxCell id="x1jz6nEeO-O-7WN6J9LO-10" value="Request_ID" style="text;strokeColor=none;fillColor=none;spacingLeft=4;spacingRight=4;overflow=hidden;rotatable=0;points=[[0,0.5],[1,0.5]];portConstraint=eastwest;fontSize=12;fontStyle=4" vertex="1" parent="x1jz6nEeO-O-7WN6J9LO-9">
          <mxGeometry y="26" width="160" height="30" as="geometry" />
        </mxCell>
        <mxCell id="x1jz6nEeO-O-7WN6J9LO-11" value="title" style="text;strokeColor=none;fillColor=none;spacingLeft=4;spacingRight=4;overflow=hidden;rotatable=0;points=[[0,0.5],[1,0.5]];portConstraint=eastwest;fontSize=12;" vertex="1" parent="x1jz6nEeO-O-7WN6J9LO-9">
          <mxGeometry y="56" width="160" height="30" as="geometry" />
        </mxCell>
        <mxCell id="x1jz6nEeO-O-7WN6J9LO-12" value="genre" style="text;strokeColor=none;fillColor=none;spacingLeft=4;spacingRight=4;overflow=hidden;rotatable=0;points=[[0,0.5],[1,0.5]];portConstraint=eastwest;fontSize=12;" vertex="1" parent="x1jz6nEeO-O-7WN6J9LO-9">
          <mxGeometry y="86" width="160" height="30" as="geometry" />
        </mxCell>
        <mxCell id="x1jz6nEeO-O-7WN6J9LO-13" value="singer" style="text;strokeColor=none;fillColor=none;spacingLeft=4;spacingRight=4;overflow=hidden;rotatable=0;points=[[0,0.5],[1,0.5]];portConstraint=eastwest;fontSize=12;" vertex="1" parent="x1jz6nEeO-O-7WN6J9LO-9">
          <mxGeometry y="116" width="160" height="30" as="geometry" />
        </mxCell>
        <mxCell id="x1jz6nEeO-O-7WN6J9LO-14" value="Member" style="swimlane;fontStyle=2;childLayout=stackLayout;horizontal=1;startSize=26;horizontalStack=0;resizeParent=1;resizeParentMax=0;resizeLast=0;collapsible=1;marginBottom=0;align=center;fontSize=14;fillColor=#dae8fc;strokeColor=#000000;" vertex="1" parent="1">
          <mxGeometry x="320" y="400" width="160" height="176" as="geometry" />
        </mxCell>
        <mxCell id="x1jz6nEeO-O-7WN6J9LO-15" value="member_ID" style="text;strokeColor=none;fillColor=none;spacingLeft=4;spacingRight=4;overflow=hidden;rotatable=0;points=[[0,0.5],[1,0.5]];portConstraint=eastwest;fontSize=12;fontStyle=4" vertex="1" parent="x1jz6nEeO-O-7WN6J9LO-14">
          <mxGeometry y="26" width="160" height="30" as="geometry" />
        </mxCell>
        <mxCell id="x1jz6nEeO-O-7WN6J9LO-16" value="name" style="text;strokeColor=none;fillColor=none;spacingLeft=4;spacingRight=4;overflow=hidden;rotatable=0;points=[[0,0.5],[1,0.5]];portConstraint=eastwest;fontSize=12;" vertex="1" parent="x1jz6nEeO-O-7WN6J9LO-14">
          <mxGeometry y="56" width="160" height="30" as="geometry" />
        </mxCell>
        <mxCell id="x1jz6nEeO-O-7WN6J9LO-17" value="birth" style="text;strokeColor=none;fillColor=none;spacingLeft=4;spacingRight=4;overflow=hidden;rotatable=0;points=[[0,0.5],[1,0.5]];portConstraint=eastwest;fontSize=12;" vertex="1" parent="x1jz6nEeO-O-7WN6J9LO-14">
          <mxGeometry y="86" width="160" height="30" as="geometry" />
        </mxCell>
        <mxCell id="x1jz6nEeO-O-7WN6J9LO-50" value="available_songs" style="text;strokeColor=none;fillColor=none;spacingLeft=4;spacingRight=4;overflow=hidden;rotatable=0;points=[[0,0.5],[1,0.5]];portConstraint=eastwest;fontSize=12;" vertex="1" parent="x1jz6nEeO-O-7WN6J9LO-14">
          <mxGeometry y="116" width="160" height="30" as="geometry" />
        </mxCell>
        <mxCell id="x1jz6nEeO-O-7WN6J9LO-18" value="admin" style="text;strokeColor=none;fillColor=none;spacingLeft=4;spacingRight=4;overflow=hidden;rotatable=0;points=[[0,0.5],[1,0.5]];portConstraint=eastwest;fontSize=12;" vertex="1" parent="x1jz6nEeO-O-7WN6J9LO-14">
          <mxGeometry y="146" width="160" height="30" as="geometry" />
        </mxCell>
        <mxCell id="x1jz6nEeO-O-7WN6J9LO-20" value="Commodity" style="swimlane;fontStyle=2;childLayout=stackLayout;horizontal=1;startSize=26;horizontalStack=0;resizeParent=1;resizeParentMax=0;resizeLast=0;collapsible=1;marginBottom=0;align=center;fontSize=14;fillColor=#dae8fc;strokeColor=#000000;" vertex="1" parent="1">
          <mxGeometry x="680" y="425.5" width="160" height="116" as="geometry" />
        </mxCell>
        <mxCell id="x1jz6nEeO-O-7WN6J9LO-21" value="commodity_ID" style="text;strokeColor=none;fillColor=none;spacingLeft=4;spacingRight=4;overflow=hidden;rotatable=0;points=[[0,0.5],[1,0.5]];portConstraint=eastwest;fontSize=12;fontStyle=4" vertex="1" parent="x1jz6nEeO-O-7WN6J9LO-20">
          <mxGeometry y="26" width="160" height="30" as="geometry" />
        </mxCell>
        <mxCell id="x1jz6nEeO-O-7WN6J9LO-22" value="name" style="text;strokeColor=none;fillColor=none;spacingLeft=4;spacingRight=4;overflow=hidden;rotatable=0;points=[[0,0.5],[1,0.5]];portConstraint=eastwest;fontSize=12;" vertex="1" parent="x1jz6nEeO-O-7WN6J9LO-20">
          <mxGeometry y="56" width="160" height="30" as="geometry" />
        </mxCell>
        <mxCell id="x1jz6nEeO-O-7WN6J9LO-23" value="price" style="text;strokeColor=none;fillColor=none;spacingLeft=4;spacingRight=4;overflow=hidden;rotatable=0;points=[[0,0.5],[1,0.5]];portConstraint=eastwest;fontSize=12;" vertex="1" parent="x1jz6nEeO-O-7WN6J9LO-20">
          <mxGeometry y="86" width="160" height="30" as="geometry" />
        </mxCell>
        <mxCell id="x1jz6nEeO-O-7WN6J9LO-25" value="Voucher" style="swimlane;fontStyle=2;childLayout=stackLayout;horizontal=1;startSize=26;horizontalStack=0;resizeParent=1;resizeParentMax=0;resizeLast=0;collapsible=1;marginBottom=0;align=center;fontSize=14;fillColor=#dae8fc;strokeColor=#000000;" vertex="1" parent="1">
          <mxGeometry x="320" y="707" width="160" height="116" as="geometry" />
        </mxCell>
        <mxCell id="x1jz6nEeO-O-7WN6J9LO-26" value="voucher_ID" style="text;strokeColor=none;fillColor=none;spacingLeft=4;spacingRight=4;overflow=hidden;rotatable=0;points=[[0,0.5],[1,0.5]];portConstraint=eastwest;fontSize=12;fontStyle=4" vertex="1" parent="x1jz6nEeO-O-7WN6J9LO-25">
          <mxGeometry y="26" width="160" height="30" as="geometry" />
        </mxCell>
        <mxCell id="x1jz6nEeO-O-7WN6J9LO-27" value="num_songs" style="text;strokeColor=none;fillColor=none;spacingLeft=4;spacingRight=4;overflow=hidden;rotatable=0;points=[[0,0.5],[1,0.5]];portConstraint=eastwest;fontSize=12;" vertex="1" parent="x1jz6nEeO-O-7WN6J9LO-25">
          <mxGeometry y="56" width="160" height="30" as="geometry" />
        </mxCell>
        <mxCell id="x1jz6nEeO-O-7WN6J9LO-28" value="price" style="text;strokeColor=none;fillColor=none;spacingLeft=4;spacingRight=4;overflow=hidden;rotatable=0;points=[[0,0.5],[1,0.5]];portConstraint=eastwest;fontSize=12;" vertex="1" parent="x1jz6nEeO-O-7WN6J9LO-25">
          <mxGeometry y="86" width="160" height="30" as="geometry" />
        </mxCell>
        <mxCell id="x1jz6nEeO-O-7WN6J9LO-29" value="sing" style="shape=rhombus;perimeter=rhombusPerimeter;whiteSpace=wrap;html=1;align=center;fontFamily=Helvetica;fontSize=14;startSize=26;strokeColor=#000000;fillColor=#fff2cc;" vertex="1" parent="1">
          <mxGeometry x="160" y="461" width="120" height="60" as="geometry" />
        </mxCell>
        <mxCell id="x1jz6nEeO-O-7WN6J9LO-30" value="" style="endArrow=none;html=1;rounded=0;fontFamily=Helvetica;fontSize=14;fontColor=default;startSize=26;" edge="1" parent="1">
          <mxGeometry relative="1" as="geometry">
            <mxPoint x="280" y="491" as="sourcePoint" />
            <mxPoint x="320" y="491" as="targetPoint" />
          </mxGeometry>
        </mxCell>
        <mxCell id="x1jz6nEeO-O-7WN6J9LO-32" value="" style="endArrow=none;html=1;rounded=0;fontFamily=Helvetica;fontSize=14;fontColor=default;startSize=26;" edge="1" parent="1">
          <mxGeometry relative="1" as="geometry">
            <mxPoint x="120" y="490.5" as="sourcePoint" />
            <mxPoint x="160" y="490.5" as="targetPoint" />
          </mxGeometry>
        </mxCell>
        <mxCell id="x1jz6nEeO-O-7WN6J9LO-33" value="request" style="shape=rhombus;perimeter=rhombusPerimeter;whiteSpace=wrap;html=1;align=center;fontFamily=Helvetica;fontSize=14;startSize=26;strokeColor=#000000;fillColor=#fff2cc;" vertex="1" parent="1">
          <mxGeometry x="340" y="300" width="120" height="60" as="geometry" />
        </mxCell>
        <mxCell id="x1jz6nEeO-O-7WN6J9LO-34" value="" style="endArrow=none;html=1;rounded=0;fontFamily=Helvetica;fontSize=14;fontColor=default;startSize=26;" edge="1" parent="1">
          <mxGeometry relative="1" as="geometry">
            <mxPoint x="400" y="360" as="sourcePoint" />
            <mxPoint x="400" y="400" as="targetPoint" />
          </mxGeometry>
        </mxCell>
        <mxCell id="x1jz6nEeO-O-7WN6J9LO-35" value="" style="endArrow=none;html=1;rounded=0;fontFamily=Helvetica;fontSize=14;fontColor=default;startSize=26;" edge="1" parent="1">
          <mxGeometry relative="1" as="geometry">
            <mxPoint x="400" y="270" as="sourcePoint" />
            <mxPoint x="400" y="300" as="targetPoint" />
          </mxGeometry>
        </mxCell>
        <mxCell id="x1jz6nEeO-O-7WN6J9LO-36" value="" style="endArrow=none;html=1;rounded=0;fontFamily=Helvetica;fontSize=14;fontColor=default;startSize=26;dashed=1;" edge="1" parent="1">
          <mxGeometry relative="1" as="geometry">
            <mxPoint x="300" y="329.44" as="sourcePoint" />
            <mxPoint x="340" y="329.44" as="targetPoint" />
          </mxGeometry>
        </mxCell>
        <mxCell id="x1jz6nEeO-O-7WN6J9LO-38" value="request_time" style="text;strokeColor=default;fillColor=none;align=left;verticalAlign=middle;spacingLeft=4;spacingRight=4;overflow=hidden;points=[[0,0.5],[1,0.5]];portConstraint=eastwest;rotatable=0;fontFamily=Helvetica;fontSize=14;fontColor=default;startSize=26;html=1;" vertex="1" parent="1">
          <mxGeometry x="210" y="315" width="90" height="30" as="geometry" />
        </mxCell>
        <mxCell id="x1jz6nEeO-O-7WN6J9LO-39" value="buy" style="shape=rhombus;perimeter=rhombusPerimeter;whiteSpace=wrap;html=1;align=center;fontFamily=Helvetica;fontSize=14;startSize=26;strokeColor=#000000;fillColor=#fff2cc;" vertex="1" parent="1">
          <mxGeometry x="520" y="460.5" width="120" height="60" as="geometry" />
        </mxCell>
        <mxCell id="x1jz6nEeO-O-7WN6J9LO-40" value="" style="endArrow=none;html=1;rounded=0;fontFamily=Helvetica;fontSize=14;fontColor=default;startSize=26;" edge="1" parent="1">
          <mxGeometry relative="1" as="geometry">
            <mxPoint x="640" y="490.5" as="sourcePoint" />
            <mxPoint x="680" y="490.5" as="targetPoint" />
          </mxGeometry>
        </mxCell>
        <mxCell id="x1jz6nEeO-O-7WN6J9LO-41" value="" style="endArrow=none;html=1;rounded=0;fontFamily=Helvetica;fontSize=14;fontColor=default;startSize=26;" edge="1" parent="1">
          <mxGeometry relative="1" as="geometry">
            <mxPoint x="480" y="490" as="sourcePoint" />
            <mxPoint x="520" y="490" as="targetPoint" />
          </mxGeometry>
        </mxCell>
        <mxCell id="x1jz6nEeO-O-7WN6J9LO-42" value="" style="endArrow=none;html=1;rounded=0;fontFamily=Helvetica;fontSize=14;fontColor=default;startSize=26;dashed=1;" edge="1" parent="1">
          <mxGeometry relative="1" as="geometry">
            <mxPoint x="579.57" y="429.3900000000001" as="sourcePoint" />
            <mxPoint x="579.57" y="460.5" as="targetPoint" />
          </mxGeometry>
        </mxCell>
        <mxCell id="x1jz6nEeO-O-7WN6J9LO-43" value="paid" style="shape=rhombus;perimeter=rhombusPerimeter;whiteSpace=wrap;html=1;align=center;fontFamily=Helvetica;fontSize=14;startSize=26;strokeColor=#000000;fillColor=#fff2cc;" vertex="1" parent="1">
          <mxGeometry x="340" y="606" width="120" height="60" as="geometry" />
        </mxCell>
        <mxCell id="x1jz6nEeO-O-7WN6J9LO-44" value="" style="endArrow=none;html=1;rounded=0;fontFamily=Helvetica;fontSize=14;fontColor=default;startSize=26;" edge="1" parent="1">
          <mxGeometry relative="1" as="geometry">
            <mxPoint x="400" y="666" as="sourcePoint" />
            <mxPoint x="400" y="706" as="targetPoint" />
          </mxGeometry>
        </mxCell>
        <mxCell id="x1jz6nEeO-O-7WN6J9LO-45" value="" style="endArrow=none;html=1;rounded=0;fontFamily=Helvetica;fontSize=14;fontColor=default;startSize=26;" edge="1" parent="1">
          <mxGeometry relative="1" as="geometry">
            <mxPoint x="400" y="576" as="sourcePoint" />
            <mxPoint x="400" y="606" as="targetPoint" />
          </mxGeometry>
        </mxCell>
        <mxCell id="x1jz6nEeO-O-7WN6J9LO-46" value="" style="endArrow=none;html=1;rounded=0;fontFamily=Helvetica;fontSize=14;fontColor=default;startSize=26;dashed=1;" edge="1" parent="1">
          <mxGeometry relative="1" as="geometry">
            <mxPoint x="460" y="635.57" as="sourcePoint" />
            <mxPoint x="500" y="635.57" as="targetPoint" />
          </mxGeometry>
        </mxCell>
        <mxCell id="x1jz6nEeO-O-7WN6J9LO-47" value="pay_time" style="text;strokeColor=default;fillColor=none;align=left;verticalAlign=middle;spacingLeft=4;spacingRight=4;overflow=hidden;points=[[0,0.5],[1,0.5]];portConstraint=eastwest;rotatable=0;fontFamily=Helvetica;fontSize=14;fontColor=default;startSize=26;html=1;" vertex="1" parent="1">
          <mxGeometry x="500" y="621" width="90" height="30" as="geometry" />
        </mxCell>
        <mxCell id="x1jz6nEeO-O-7WN6J9LO-53" value="" style="endArrow=none;html=1;rounded=0;fontFamily=Helvetica;fontSize=14;fontColor=default;startSize=26;dashed=1;" edge="1" parent="1">
          <mxGeometry relative="1" as="geometry">
            <mxPoint x="219.64000000000016" y="521.0000000000001" as="sourcePoint" />
            <mxPoint x="219.64000000000016" y="552.11" as="targetPoint" />
          </mxGeometry>
        </mxCell>
        <mxCell id="x1jz6nEeO-O-7WN6J9LO-54" value="quantity" style="text;strokeColor=default;fillColor=none;align=left;verticalAlign=middle;spacingLeft=4;spacingRight=4;overflow=hidden;points=[[0,0.5],[1,0.5]];portConstraint=eastwest;rotatable=0;fontFamily=Helvetica;fontSize=14;fontColor=default;startSize=26;html=1;" vertex="1" parent="1">
          <mxGeometry x="535" y="396" width="90" height="30" as="geometry" />
        </mxCell>
        <mxCell id="x1jz6nEeO-O-7WN6J9LO-56" value="sing_time" style="text;strokeColor=default;fillColor=none;align=left;verticalAlign=middle;spacingLeft=4;spacingRight=4;overflow=hidden;points=[[0,0.5],[1,0.5]];portConstraint=eastwest;rotatable=0;fontFamily=Helvetica;fontSize=14;fontColor=default;startSize=26;html=1;" vertex="1" parent="1">
          <mxGeometry x="175" y="555" width="90" height="30" as="geometry" />
        </mxCell>
      </root>
    </mxGraphModel>
  </diagram>
</mxfile>
